<svg width="34" height="34" viewBox="0 0 34 34" fill="none" xmlns="http://www.w3.org/2000/svg">
<path d="M21.3166 10.3333L16.9999 14.6499L12.6833 10.3333L10.3333 12.6833L14.6499 16.9999L10.3333 21.3166L12.6833 23.6666L16.9999 19.3499L21.3166 23.6666L23.6666 21.3166L19.3499 16.9999L23.6666 12.6833L21.3166 10.3333ZM16.9999 0.333252C7.78325 0.333252 0.333252 7.78325 0.333252 16.9999C0.333252 26.2166 7.78325 33.6666 16.9999 33.6666C26.2166 33.6666 33.6666 26.2166 33.6666 16.9999C33.6666 7.78325 26.2166 0.333252 16.9999 0.333252ZM16.9999 30.3333C9.64992 30.3333 3.66659 24.3499 3.66659 16.9999C3.66659 9.64992 9.64992 3.66659 16.9999 3.66659C24.3499 3.66659 30.3333 9.64992 30.3333 16.9999C30.3333 24.3499 24.3499 30.3333 16.9999 30.3333Z" fill="#292F33"/>
</svg>
