<svg width="216" height="230" viewBox="0 0 216 230" fill="none" xmlns="http://www.w3.org/2000/svg">
<path d="M212.288 39.8921C210.4 39.8921 208.869 41.423 208.869 43.3115C208.869 64.0511 191.996 80.9237 171.257 80.9237H150.741V87.7622H171.257C195.767 87.7622 215.707 67.8218 215.707 43.3115C215.708 41.423 214.177 39.8921 212.288 39.8921Z" fill="#989B26"/>
<path d="M133.645 129.928V219.556L122.306 223.335C120.515 223.932 119.547 225.869 120.143 227.66C120.74 229.452 122.678 230.42 124.468 229.823L138.145 225.264C139.542 224.799 140.483 223.492 140.483 222.021V129.928H133.645Z" fill="#4F6BA8"/>
<path d="M167.838 129.928V219.556L179.176 223.335C180.967 223.932 181.935 225.869 181.339 227.66C180.742 229.452 178.804 230.42 177.014 229.823L163.337 225.264C161.941 224.799 161 223.492 161 222.021V129.928H167.838Z" fill="#4F6BA8"/>
<path d="M49.5298 71.8005C47.6413 71.8005 46.1104 73.3315 46.1104 75.22V82.0584H52.9488V75.22C52.9488 73.3315 51.4179 71.8005 49.5298 71.8005Z" fill="#9AAEB9"/>
<path d="M150.741 116.256V150.449C162.072 150.449 171.257 141.264 171.257 129.933L150.741 116.256Z" fill="#4F6BA8"/>
<path d="M157.579 129.933L150.741 116.256L130.225 129.933C130.225 141.264 139.41 150.449 150.741 150.449C154.517 150.449 157.579 141.264 157.579 129.933Z" fill="#4F6BA8"/>
<path d="M162.139 75.2244H148.461L157.58 129.933H171.257V84.3426C171.257 79.3069 167.175 75.2244 162.139 75.2244Z" fill="#989B26"/>
<path d="M148.461 75.2244H139.343C134.307 75.2244 130.225 79.3064 130.225 84.3426V129.933H157.579V84.3426C157.579 79.3069 153.497 75.2244 148.461 75.2244Z" fill="#989B26"/>
<path d="M150.743 20.5158C156.409 20.5158 161.001 15.9232 161.001 10.2579C161.001 4.59262 156.409 0 150.743 0C145.078 0 140.485 4.59262 140.485 10.2579C140.485 15.9232 145.078 20.5158 150.743 20.5158Z" fill="#AD9681"/>
<path d="M150.741 20.5159V66.5626L171.257 45.5908V41.0317C171.257 29.701 162.072 20.5159 150.741 20.5159Z" fill="#FFE0B2"/>
<path d="M150.741 20.5159C139.41 20.5159 130.225 29.701 130.225 41.0317V45.5908L157.579 66.5626V41.0317C157.579 29.701 154.517 20.5159 150.741 20.5159Z" fill="#FFE0B2"/>
<path d="M159.271 45.5909C158.79 44.8739 158.221 44.2221 157.58 43.6484L150.741 75.2249C162.072 75.2249 171.257 66.0397 171.257 54.7091V45.5909H159.271V45.5909Z" fill="#AD9681"/>
<path d="M157.579 54.7084V43.6477C155.765 42.022 153.369 41.0315 150.741 41.0315C147.185 41.0315 144.052 42.8418 142.212 45.5906H130.226V54.7089C130.226 66.0395 139.411 75.2247 150.741 75.2247C154.518 75.2242 157.579 66.0391 157.579 54.7084Z" fill="#AD9681"/>
<path d="M30.1538 109.418L58.42 82.0642H72.0974V109.418H30.1538Z" fill="#9AAEB9"/>
<path d="M58.4222 82.0632H24.2295V109.418H58.4222V82.0632Z" fill="#9AAEB9"/>
<path d="M54.0894 123.095L82.3555 95.7412H96.0325V123.095H54.0894Z" fill="#B84A48"/>
<path d="M82.3552 95.7402H13.9692V123.095H82.3552V95.7402Z" fill="#B84A48"/>
<path d="M96.032 116.257L68.6777 171.421L96.032 226.585H109.709V116.257L96.032 116.257Z" fill="#FFCC5E"/>
<path d="M96.0322 116.256H0.291992V226.586H96.0322V116.256Z" fill="#FFCC5E"/>
<path d="M96.0321 129.934L82.3552 129.935L55.0005 171.421L85.7742 212.908H96.0321V174.385L86.9139 170.965L96.0321 167.546V129.934Z" fill="#AD9681"/>
<path d="M13.9692 129.934V212.908H24.2271L27.6462 206.07L31.0656 212.908H37.9041L41.3235 206.07L44.7425 212.908H51.5814L55.0004 206.07L58.4199 212.908H65.2583L68.6778 206.07L72.0973 212.908H78.9357L82.3552 204.935V129.935L13.9692 129.934Z" fill="#AD9681"/>
<path d="M24.2271 212.908L27.6461 204.935L31.0655 212.908H24.2271Z" fill="#AD9681"/>
<path d="M37.9043 212.908L41.3238 204.935L44.7428 212.908H37.9043Z" fill="#AD9681"/>
<path d="M51.5815 212.908L55.0005 204.935L58.42 212.908H51.5815Z" fill="#AD9681"/>
<path d="M65.2583 212.908L68.6778 204.935L72.0972 212.908H65.2583Z" fill="#AD9681"/>
<path d="M75.5162 85.4832H20.8076C18.9191 85.4832 17.3882 83.9523 17.3882 82.0637C17.3882 80.1752 18.9191 78.6443 20.8076 78.6443H75.5162C77.4047 78.6443 78.9356 80.1752 78.9356 82.0637C78.9356 83.9523 77.4047 85.4832 75.5162 85.4832Z" fill="#353535"/>
<path d="M96.0323 85.4832H89.1939C87.3054 85.4832 85.7744 83.9523 85.7744 82.0637C85.7744 80.1752 87.3054 78.6443 89.1939 78.6443H96.0323C97.9208 78.6443 99.4518 80.1752 99.4518 82.0637C99.4518 83.9523 97.9208 85.4832 96.0323 85.4832Z" fill="#9AAEB9"/>
<path d="M27.6465 140.192C25.758 140.192 24.2271 141.723 24.2271 143.612V170.96H31.0655V143.612C31.066 141.723 29.535 140.192 27.6465 140.192Z" fill="#353535"/>
<path d="M41.3237 140.192C39.4352 140.192 37.9043 141.723 37.9043 143.612V170.96H44.7428V143.612C44.7428 141.723 43.2118 140.192 41.3237 140.192Z" fill="#989B26"/>
<path d="M55.0005 140.192C53.112 140.192 51.5811 141.723 51.5811 143.612V170.96H58.4195V143.612C58.42 141.723 56.889 140.192 55.0005 140.192Z" fill="#A1DD7A"/>
<path d="M68.6778 140.192C66.7892 140.192 65.2583 141.723 65.2583 143.612V170.96H72.0968V143.612C72.0972 141.723 70.5663 140.192 68.6778 140.192Z" fill="#084F6D"/>
<path d="M82.3555 140.192C80.467 140.192 78.936 141.723 78.936 143.612V170.96H85.7745V143.612C85.7745 141.723 84.2436 140.192 82.3555 140.192Z" fill="#B84A48"/>
<path d="M27.6465 182.14C25.758 182.14 24.2271 183.671 24.2271 185.559V212.908H31.0655V185.559C31.066 183.671 29.535 182.14 27.6465 182.14Z" fill="#F2456B"/>
<path d="M41.3237 182.14C39.4352 182.14 37.9043 183.671 37.9043 185.559V212.908H44.7428V185.559C44.7428 183.671 43.2118 182.14 41.3237 182.14Z" fill="#353535"/>
<path d="M55.0005 182.14C53.112 182.14 51.5811 183.671 51.5811 185.559V212.908H58.4195V185.559C58.42 183.671 56.889 182.14 55.0005 182.14Z" fill="#9A63C6"/>
<path d="M68.6778 182.14C66.7892 182.14 65.2583 183.671 65.2583 185.559V212.908H72.0968V185.559C72.0972 183.671 70.5663 182.14 68.6778 182.14Z" fill="#989B26"/>
<path d="M82.3555 182.14C80.467 182.14 78.936 183.671 78.936 185.559V212.908H85.7745V185.559C85.7745 183.671 84.2436 182.14 82.3555 182.14Z" fill="#C4D6FF"/>
<path d="M96.0321 167.546H9.41016V174.384H96.0321V167.546Z" fill="#FFCC5E"/>
</svg>
