<svg width="260" height="260" viewBox="0 0 260 260" fill="none" xmlns="http://www.w3.org/2000/svg">
<path d="M141.934 71.6016C144.038 71.6016 145.742 73.3075 145.742 75.4102C145.742 98.5117 164.537 117.305 187.637 117.305H195.254V124.922H187.637C160.336 124.922 138.125 102.711 138.125 75.4102C138.125 73.3075 139.829 71.6016 141.934 71.6016Z" fill="#F2456B"/>
<path d="M118.066 71.6016C115.962 71.6016 114.258 73.3075 114.258 75.4102C114.258 98.5117 95.4628 117.305 72.3633 117.305H64.7461V124.922H72.3633C99.6642 124.922 121.875 102.711 121.875 75.4102C121.875 73.3075 120.171 71.6016 118.066 71.6016Z" fill="#FBE9E7"/>
<path d="M26.6602 72.8711V126.191L57.1289 110.957C65.5078 110.957 72.3633 104.102 72.3633 95.7227V72.8711H26.6602Z" fill="#FFA10D"/>
<path d="M57.1289 95.7227V68.6024L29.9847 60.9971L13.6415 87.8139C12.2371 90.1189 11.4258 92.8266 11.4258 95.7227C11.4258 98.4978 12.1716 101.098 13.4689 103.34C12.1716 105.581 11.4258 108.182 11.4258 110.957C11.4258 119.372 18.2455 126.191 26.6602 126.191L41.8945 110.957C50.2734 110.957 57.1289 104.102 57.1289 95.7227Z" fill="#FFA10D"/>
<path d="M63.2227 54.5898H49.5117V95.7227C62.1317 95.7227 72.3633 85.491 72.3633 72.8711C72.3633 65.3967 68.7729 58.7535 63.2227 54.5898Z" fill="#FBE9E7"/>
<path d="M56.2144 62.0244C56.7996 65.2538 57.1289 68.9453 57.1289 72.871C57.1289 85.4909 53.717 95.7225 49.5117 95.7225C36.8918 95.7225 26.6602 85.4909 26.6602 72.871L56.2144 62.0244Z" fill="#FBE9E7"/>
<path d="M63.2227 54.5898C61.1716 57.3213 58.819 59.8148 56.2144 62.0245L49.5117 50.0195C54.6513 50.0195 59.4041 51.7215 63.2227 54.5898Z" fill="#FFA10D"/>
<path d="M26.6602 72.8711C26.6602 60.2512 36.8918 50.0195 49.5117 50.0195C52.4059 50.0195 54.931 54.8735 56.2144 62.0245C48.2481 68.7888 37.9292 72.8711 26.6602 72.8711Z" fill="#FFA10D"/>
<path d="M49.5117 141.426V202.363H76.1719V164.277L72.3633 156.66L49.5117 141.426Z" fill="#FFCB63"/>
<path d="M26.6602 171.895C26.6602 184.514 36.8918 194.746 49.5117 194.746L57.1289 202.363V146.504L26.6602 156.66V171.895Z" fill="#FFE2A8"/>
<path d="M62.207 110.957H46.9727L57.1289 156.66H72.3633V121.113C72.3633 115.504 67.8168 110.957 62.207 110.957Z" fill="#4C565B"/>
<path d="M218.105 156.66L210.488 194.746C223.108 194.746 233.34 184.514 233.34 171.895L218.105 156.66Z" fill="#4C565B"/>
<path d="M218.105 171.895V160.469H183.828V202.363H199.062L210.488 194.746C214.696 194.746 218.105 184.514 218.105 171.895Z" fill="#4C565B"/>
<path d="M223.184 110.957H207.949L218.105 171.895H233.34V121.113C233.34 115.504 228.793 110.957 223.184 110.957Z" fill="#F2456B"/>
<path d="M207.949 110.957H197.793C192.183 110.957 187.637 115.504 187.637 121.113V156.66L172.402 171.895H218.105V121.113C218.105 115.504 213.559 110.957 207.949 110.957Z" fill="#F2456B"/>
<path d="M57.1289 121.113C57.1289 115.504 52.5824 110.957 46.9727 110.957H36.8164C31.2067 110.957 26.6602 115.504 26.6602 121.113V156.66H57.1289V121.113Z" fill="#4C565B"/>
<path d="M172.402 156.66L157.168 164.277L172.402 171.895H183.828L180.02 156.66H172.402Z" fill="#FFA10D"/>
<path d="M79.9805 156.66L76.1719 171.895H172.402V156.66H79.9805Z" fill="#FFA10D"/>
<path d="M233.34 194.746L223.184 202.363L233.34 209.98H248.574V194.746H233.34Z" fill="#6B4489"/>
<path d="M183.828 194.746H233.34V209.98H183.828V194.746Z" fill="#FFA10D"/>
<path d="M57.1289 194.746L46.9727 202.363L57.1289 209.98H76.1719V194.746H57.1289Z" fill="#FFA10D"/>
<path d="M11.4258 194.746H57.1289V209.98H11.4258V194.746Z" fill="#FFA10D"/>
<path d="M157.166 2.0332L129.171 28.6934L157.166 55.3535L172.404 70.5879L172.4 2.0332H157.166Z" fill="#C4D6FF"/>
<path d="M87.5957 2.03125V70.5879L102.834 55.3535H157.166V2.03323L87.5957 2.03125Z" fill="#C4D6FF"/>
<path d="M118.574 28.6914C118.574 30.7941 116.868 32.5 114.766 32.5C112.663 32.5 110.957 30.7941 110.957 28.6914C110.957 26.5887 112.663 24.8828 114.766 24.8828C116.868 24.8828 118.574 26.5887 118.574 28.6914Z" fill="#4C565B"/>
<path d="M133.809 28.6914C133.809 30.7941 132.103 32.5 130 32.5C127.897 32.5 126.191 30.7941 126.191 28.6914C126.191 26.5887 127.897 24.8828 130 24.8828C132.103 24.8828 133.809 26.5887 133.809 28.6914Z" fill="#4C565B"/>
<path d="M149.043 28.6914C149.043 30.7941 147.337 32.5 145.234 32.5C143.132 32.5 141.426 30.7941 141.426 28.6914C141.426 26.5887 143.132 24.8828 145.234 24.8828C147.337 24.8828 149.043 26.5887 149.043 28.6914Z" fill="#4C565B"/>
<path d="M210.488 50.0195V101.309L233.34 77.9492V72.8711C233.34 60.2512 223.108 50.0195 210.488 50.0195Z" fill="#795548"/>
<path d="M210.488 50.0195C197.868 50.0195 187.637 60.2512 187.637 72.8711V77.9492L218.105 101.309V72.8711C218.105 60.2512 214.696 50.0195 210.488 50.0195Z" fill="#795548"/>
<path d="M219.99 77.9493C219.454 77.1499 218.82 76.4239 218.105 75.7852L210.488 110.957C223.108 110.957 233.34 100.725 233.34 88.1056V77.9493H219.99Z" fill="#FFE2A8"/>
<path d="M218.105 88.1055V75.7851C216.084 73.974 213.416 72.8711 210.488 72.8711C206.527 72.8711 203.038 74.8885 200.987 77.9492H187.637V88.1055C187.637 100.725 197.868 110.957 210.488 110.957C214.696 110.957 218.105 100.725 218.105 88.1055Z" fill="#FFE0B2"/>
<path d="M113.488 250.82L101.563 246.636V190.938C101.563 188.835 99.8566 187.129 97.7539 187.129H76.1719V194.746H93.9453V249.336C93.9453 250.953 94.9669 252.395 96.4923 252.93L110.965 258.008C111.384 258.153 111.808 258.225 112.227 258.225C113.8 258.225 115.269 257.243 115.821 255.676C116.517 253.69 115.472 251.518 113.488 250.82Z" fill="#FBE9E7"/>
<path d="M162.246 187.129C160.143 187.129 158.437 188.835 158.437 190.938V246.636L146.512 250.82C144.528 251.518 143.483 253.69 144.179 255.676C144.73 257.243 146.2 258.225 147.773 258.225C148.192 258.225 148.616 258.155 149.035 258.008L163.508 252.93C165.033 252.395 166.055 250.955 166.055 249.336V194.746H183.828V187.129H162.246Z" fill="#4C565B"/>
<path d="M72.3633 156.66V244.258C72.3633 247.759 69.5168 250.605 66.0156 250.605H13.9648C10.4637 250.605 7.61719 247.759 7.61719 244.258C7.61719 243.772 7.67273 243.288 7.77985 242.818L15.1372 210.835C15.2026 210.556 15.2344 210.268 15.2344 209.98V149.043C15.2344 142.743 10.1086 137.617 3.80859 137.617C1.70593 137.617 0 139.323 0 141.426C0 143.53 1.70593 145.234 3.80859 145.234C5.90927 145.234 7.61719 146.942 7.61719 149.043V209.548L0.357056 241.108C0.121002 242.135 0 243.197 0 244.258C0 251.958 6.26434 258.223 13.9648 258.223H66.0156C73.7161 258.223 79.9805 251.958 79.9805 244.258V156.66H72.3633Z" fill="#6B4489"/>
<path d="M252.383 209.548V149.043C252.383 146.942 254.091 145.234 256.191 145.234C258.294 145.234 260 143.528 260 141.426C260 139.323 258.294 137.617 256.191 137.617C249.891 137.617 244.766 142.743 244.766 149.043V209.98C244.766 210.268 244.797 210.554 244.863 210.833L252.22 242.822C252.327 243.288 252.383 243.772 252.383 244.258C252.383 247.759 249.536 250.605 246.035 250.605H193.984C190.483 250.605 187.637 247.759 187.637 244.258V156.66H180.02V244.258C180.02 251.958 186.284 258.223 193.984 258.223H246.035C253.736 258.223 260 251.958 260 244.258C260 243.197 259.879 242.135 259.643 241.11L252.383 209.548Z" fill="#6B4489"/>
</svg>
