<svg width="200" height="200" viewBox="0 0 200 200" fill="none" xmlns="http://www.w3.org/2000/svg">
<path d="M116.568 73.1235L112.425 77.2665C125.096 89.9376 132.075 106.785 132.075 124.705V131.836C132.075 133.454 133.386 134.765 135.004 134.765C136.622 134.765 137.934 133.454 137.934 131.836V124.705C137.934 105.22 130.346 86.9013 116.568 73.1235Z" fill="#FFE0B2"/>
<path d="M83.1277 73.1235L87.2707 77.2665C74.5996 89.9376 67.6211 106.785 67.6211 124.705V131.836C67.6211 133.454 66.3094 134.765 64.6914 134.765C63.0734 134.765 61.7617 133.454 61.7617 131.836V124.705C61.7621 105.22 69.35 86.9013 83.1277 73.1235Z" fill="#FFE0B2"/>
<path d="M100 0C98.3816 0 97.0703 1.31172 97.0703 2.92969V20.5078H102.93V2.92969C102.93 1.31172 101.618 0 100 0Z" fill="#3A538C"/>
<path d="M124.212 194.29L114.497 191.051V110.351H108.637V193.163C108.637 194.424 109.444 195.544 110.641 195.942L122.359 199.849C123.894 200.36 125.554 199.531 126.065 197.996C126.575 196.461 125.747 194.801 124.212 194.29Z" fill="#828282"/>
<path d="M75.4833 194.29L85.1989 191.051V110.351H91.0583V193.163C91.0583 194.424 90.2516 195.544 89.0552 195.942L77.3364 199.849C75.8012 200.36 74.1419 199.531 73.6305 197.996C73.1204 196.461 73.9485 194.801 75.4833 194.29Z" fill="#828282"/>
<path d="M100.227 8.78906L140.453 55.6211C144.832 56.1836 149.063 58.1523 152.43 61.5195C152.43 32.5742 129.109 9.07422 100.227 8.78906Z" fill="#4C565B"/>
<path d="M46.9609 61.5195C55.0586 53.4219 68.1602 53.4219 76.2578 61.5195L99.6953 8.78516C70.5703 8.78516 46.9609 32.3945 46.9609 61.5195Z" fill="#828282"/>
<path d="M100.227 8.78906H100L123.133 61.5195C127.863 56.7891 134.301 54.8203 140.453 55.6211C138.195 29.4922 121.086 9.12891 100.227 8.78906Z" fill="#828282"/>
<path d="M100 8.78906C112.945 8.78906 123.438 32.3984 123.438 61.5234C110.484 48.5703 89.5156 48.5703 76.5625 61.5234C76.5625 32.3984 87.0547 8.78906 100 8.78906Z" fill="#4C565B"/>
<path d="M109.766 67.3828H98.0469V114.258H117.578V75.1953C117.578 70.8805 114.08 67.3828 109.766 67.3828Z" fill="#828282"/>
<path d="M98.0469 67.3828H90.2344C85.9195 67.3828 82.4219 70.8805 82.4219 75.1953V114.258H105.859V75.1953C105.859 70.8805 102.362 67.3828 98.0469 67.3828Z" fill="#828282"/>
<path d="M117.578 102.539H105.859L111.719 137.695H123.438V118.033C123.438 112.091 121.222 106.67 117.578 102.539Z" fill="#3A538C"/>
<path d="M105.859 102.539H82.4219C78.7777 106.67 76.5625 112.091 76.5625 118.033V137.695H111.719V118.033C111.719 112.091 109.504 106.67 105.859 102.539Z" fill="#3A538C"/>
<path d="M61.9141 75.9585C60.2957 75.9585 58.9844 74.6468 58.9844 73.0288V67.1694C58.9844 65.5515 60.2957 64.2397 61.9141 64.2397C63.5324 64.2397 64.8438 65.5515 64.8438 67.1694V73.0288C64.8438 74.6468 63.5324 75.9585 61.9141 75.9585Z" fill="#116F97"/>
<path d="M47.2656 82.0312C45.6473 82.0312 44.3359 80.7195 44.3359 79.1016V73.2422C44.3359 71.6242 45.6473 70.3125 47.2656 70.3125C48.884 70.3125 50.1953 71.6242 50.1953 73.2422V79.1016C50.1953 80.7195 48.884 82.0312 47.2656 82.0312Z" fill="#116F97"/>
<path d="M54.5898 97.4609C52.9715 97.4609 51.6602 96.1492 51.6602 94.5312V88.6719C51.6602 87.0539 52.9715 85.7422 54.5898 85.7422C56.2082 85.7422 57.5195 87.0539 57.5195 88.6719V94.5312C57.5195 96.1492 56.2082 97.4609 54.5898 97.4609Z" fill="#116F97"/>
<path d="M138.086 75.9585C136.468 75.9585 135.156 74.6468 135.156 73.0288V67.1694C135.156 65.5515 136.468 64.2397 138.086 64.2397C139.704 64.2397 141.016 65.5515 141.016 67.1694V73.0288C141.016 74.6468 139.704 75.9585 138.086 75.9585Z" fill="#116F97"/>
<path d="M152.734 82.0312C151.116 82.0312 149.805 80.7195 149.805 79.1016V73.2422C149.805 71.6242 151.116 70.3125 152.734 70.3125C154.353 70.3125 155.664 71.6242 155.664 73.2422V79.1016C155.664 80.7195 154.353 82.0312 152.734 82.0312Z" fill="#116F97"/>
<path d="M47.2656 112.891C45.6473 112.891 44.3359 111.579 44.3359 109.961V104.102C44.3359 102.484 45.6473 101.172 47.2656 101.172C48.884 101.172 50.1953 102.484 50.1953 104.102V109.961C50.1953 111.579 48.884 112.891 47.2656 112.891Z" fill="#116F97"/>
<path d="M152.734 112.891C151.116 112.891 149.805 111.579 149.805 109.961V104.102C149.805 102.484 151.116 101.172 152.734 101.172C154.353 101.172 155.664 102.484 155.664 104.102V109.961C155.664 111.579 154.353 112.891 152.734 112.891Z" fill="#116F97"/>
<path d="M145.41 97.4609C143.792 97.4609 142.48 96.1492 142.48 94.5312V88.6719C142.48 87.0539 143.792 85.7422 145.41 85.7422C147.029 85.7422 148.34 87.0539 148.34 88.6719V94.5312C148.34 96.1492 147.029 97.4609 145.41 97.4609Z" fill="#116F97"/>
</svg>
