<svg width="140" height="140" viewBox="0 0 140 140" fill="none" xmlns="http://www.w3.org/2000/svg">
<g clip-path="url(#clip0)">
<path d="M70 13.5484C73.7413 13.5484 76.7742 10.5155 76.7742 6.77419C76.7742 3.03291 73.7413 0 70 0C66.2587 0 63.2258 3.03291 63.2258 6.77419C63.2258 10.5155 66.2587 13.5484 70 13.5484Z" fill="#006443"/>
<path d="M70 140C73.7413 140 76.7742 136.967 76.7742 133.226C76.7742 129.485 73.7413 126.452 70 126.452C66.2587 126.452 63.2258 129.485 63.2258 133.226C63.2258 136.967 66.2587 140 70 140Z" fill="#6ACAB0"/>
<path d="M38.3872 21.9034C42.1285 21.9034 45.1614 18.8705 45.1614 15.1292C45.1614 11.3879 42.1285 8.35498 38.3872 8.35498C34.6459 8.35498 31.613 11.3879 31.613 15.1292C31.613 18.8705 34.6459 21.9034 38.3872 21.9034Z" fill="#007450"/>
<path d="M107.484 121.484C109.29 124.645 108.161 128.71 105 130.742C101.839 132.549 97.774 131.42 95.7418 128.258C93.9353 125.097 95.0643 121.033 98.2256 119C101.387 117.194 105.677 118.323 107.484 121.484Z" fill="#A7DFCF"/>
<path d="M18.5162 32.5163C21.6775 34.3227 22.8065 38.3872 21.0001 41.7743C19.1936 44.9356 15.1291 46.0646 11.742 44.2582C8.5807 42.4517 7.45167 38.3872 9.25812 35.0001C11.0646 31.613 15.3549 30.7098 18.5162 32.5163Z" fill="#00845E"/>
<path d="M128.258 95.742C131.419 97.5485 132.548 101.613 130.742 105C128.936 108.161 124.871 109.29 121.484 107.484C118.323 105.677 117.194 101.613 119 98.2259C120.807 95.0646 124.871 93.9356 128.258 95.742Z" fill="#DBF2EC"/>
<path d="M6.77419 76.7745C10.5155 76.7745 13.5484 73.7416 13.5484 70.0003C13.5484 66.259 10.5155 63.2261 6.77419 63.2261C3.03291 63.2261 0 66.259 0 70.0003C0 73.7416 3.03291 76.7745 6.77419 76.7745Z" fill="#00916A"/>
<path d="M133.226 76.7745C136.967 76.7745 140 73.7416 140 70.0003C140 66.259 136.967 63.2261 133.226 63.2261C129.485 63.2261 126.452 66.259 126.452 70.0003C126.452 73.7416 129.485 76.7745 133.226 76.7745Z" fill="white"/>
<path d="M11.742 95.742C14.9032 93.9356 18.9678 95.0646 21 98.2259C22.8065 101.387 21.6774 105.452 18.5161 107.484C15.3549 109.29 11.2903 108.161 9.25808 105C7.22582 101.839 8.58066 97.7743 11.742 95.742Z" fill="#00A27E"/>
<path d="M121.484 32.5159C124.645 30.7095 128.71 31.8385 130.742 34.9998C132.548 38.1611 131.419 42.2256 128.258 44.2579C125.097 46.0643 121.032 44.9353 119 41.774C117.194 38.6127 118.323 34.3224 121.484 32.5159Z" fill="#003F24"/>
<path d="M32.5162 121.484C34.3226 118.323 38.3871 117.194 41.7742 119C44.9355 120.807 46.0646 124.871 44.2581 128.258C42.4517 131.42 38.3871 132.549 35.0001 130.742C31.8388 128.71 30.7097 124.645 32.5162 121.484Z" fill="#23B392"/>
<path d="M95.7418 11.742C97.5482 8.5807 101.613 7.45167 105 9.25812C108.161 11.0646 109.29 15.1291 107.484 18.5162C105.677 21.6775 101.613 22.8065 98.2256 21.0001C95.0643 19.1936 93.9353 15.1291 95.7418 11.742Z" fill="#004829"/>
</g>
<defs>
<clipPath id="clip0">
<rect width="140" height="140" fill="white"/>
</clipPath>
</defs>
</svg>
