<svg width="180" height="180" viewBox="0 0 180 180" fill="none" xmlns="http://www.w3.org/2000/svg">
<g clip-path="url(#clip0)">
<path d="M75.6712 107.039V171.826L66.7984 174.784C65.3962 175.253 64.6382 176.767 65.1051 178.17C65.5734 179.572 67.0895 180.33 68.4903 179.861L79.1937 176.294C80.2855 175.93 81.0229 174.908 81.0229 173.756V107.039H75.6712Z" fill="#292F33"/>
<path d="M102.43 107.039V171.826L111.302 174.784C112.705 175.253 113.463 176.767 112.996 178.17C112.529 179.572 111.013 180.33 109.611 179.861L98.9085 176.294C97.8153 175.93 97.0779 174.908 97.0779 173.756V107.039H102.43Z" fill="#292F33"/>
<path d="M38.2091 33.8939C38.2091 32.4163 37.0103 31.2188 35.5326 31.2188C34.0549 31.2188 32.8574 32.4163 32.8574 33.8939C32.8574 53.076 48.4621 68.6808 67.6442 68.6808H78.3477V63.329H67.6442C51.4133 63.329 38.2091 50.1248 38.2091 33.8939Z" fill="#828282"/>
<path d="M89.051 16.0552V48.1655C97.917 48.1655 105.106 40.9777 105.106 32.1103C105.106 23.243 97.917 16.0552 89.051 16.0552Z" fill="#FFE0B2"/>
<path d="M94.4029 32.1103C94.4029 23.243 92.0066 16.0552 89.0512 16.0552C80.1839 16.0552 72.9961 23.243 72.9961 32.1103C72.9961 40.9777 80.1839 48.1655 89.0512 48.1655C92.0066 48.1655 94.4029 40.9777 94.4029 32.1103Z" fill="#FFE0B2"/>
<path d="M83.6995 85.6274L89.0512 117.739C97.9171 117.739 105.106 110.55 105.106 101.683L83.6995 85.6274Z" fill="#292F33"/>
<path d="M72.9961 101.683C72.9961 110.55 80.1839 117.739 89.0512 117.739V85.6274L72.9961 101.683Z" fill="#292F33"/>
<path d="M99.7545 58.8689L89.0511 58.8647L78.3477 85.6261L105.106 85.6274L99.7545 58.8689Z" fill="#FDFDFD"/>
<path d="M78.3478 58.8689L72.9961 85.6274L89.0512 85.6247V58.8647L78.3478 58.8689Z" fill="white"/>
<path d="M105.106 101.68L89.0511 101.683L78.3477 74.9227L105.106 74.9199V101.68Z" fill="#FDFDFD"/>
<path d="M72.9961 101.68V74.9199L89.0512 74.924V101.683L72.9961 101.68Z" fill="white"/>
<path d="M99.7545 58.8691L89.0511 69.5685L78.3477 80.2733L89.0511 92.0918L99.7545 101.683L105.106 80.276L99.7545 58.8691Z" fill="#C0C0C0"/>
<path d="M89.0512 69.5685L78.3478 58.8691L72.9961 80.276L78.3478 101.683L89.0512 92.0918V69.5685Z" fill="#C0C0C0"/>
<path d="M74.7813 58.8691C70.8399 58.8691 67.6457 62.0648 67.6457 66.0048L67.6443 113.648H78.3477V58.8691H74.7813Z" fill="#9AAEB9"/>
<path d="M103.322 58.8691H99.7546V113.648H110.458V66.0048C110.458 62.0648 107.262 58.8691 103.322 58.8691Z" fill="#9AAEB9"/>
<path d="M91.7262 80.2732C91.7262 81.7509 90.5287 82.9484 89.0511 82.9484C87.572 82.9484 86.3745 81.7509 86.3745 80.2732C86.3745 78.7942 87.572 77.5967 89.0511 77.5967C90.5287 77.5967 91.7262 78.7942 91.7262 80.2732Z" fill="#9AAEB9"/>
<path d="M49.2696 9.97971L39.7774 8.60092L35.5326 0L31.6118 16.6745L35.5326 21.665L44.0222 26.1282L42.4018 16.6745L49.2696 9.97971Z" fill="#F2456B"/>
<path d="M31.2877 8.60092L21.7969 9.97971L28.6647 16.6745L27.0442 26.1282L35.5325 21.665V0L31.2877 8.60092Z" fill="#F2456B"/>
<path d="M158.623 101.683H147.92L132.935 72.2489L147.92 48.1655H158.623V101.683Z" fill="#B3DACF"/>
<path d="M147.92 101.683H121.161V48.1655H131.865L147.92 58.869V101.683Z" fill="#B3DACF"/>
<path d="M131.865 48.1655H147.92V58.869H131.865V48.1655Z" fill="#C0C0C0"/>
<path d="M147.92 72.2487H131.865C130.387 72.2487 129.188 71.0512 129.188 69.5721C129.188 68.0945 130.387 66.897 131.865 66.897H147.92C149.398 66.897 150.595 68.0945 150.595 69.5721C150.595 71.0512 149.398 72.2487 147.92 72.2487Z" fill="#828282"/>
<path d="M147.92 82.9523H131.865C130.387 82.9523 129.188 81.7548 129.188 80.2758C129.188 78.7981 130.387 77.6006 131.865 77.6006H147.92C149.398 77.6006 150.595 78.7981 150.595 80.2758C150.595 81.7548 149.398 82.9523 147.92 82.9523Z" fill="#828282"/>
<path d="M147.92 93.6554H131.865C130.387 93.6554 129.188 92.4579 129.188 90.9789C129.188 89.5012 130.387 88.3037 131.865 88.3037H147.92C149.398 88.3037 150.595 89.5012 150.595 90.9789C150.595 92.4579 149.398 93.6554 147.92 93.6554Z" fill="#828282"/>
</g>
<defs>
<clipPath id="clip0">
<rect width="180" height="180" fill="white"/>
</clipPath>
</defs>
</svg>
